<svg width="63" height="73" viewBox="0 0 63 73" fill="none" xmlns="http://www.w3.org/2000/svg">
<path d="M13.97 -22.407C14.8121 -27.5362 22.1879 -27.5362 23.03 -22.407L24.4512 -13.7497C25.0857 -9.88495 29.9574 -8.53859 32.4864 -11.5291L38.2512 -18.3457C41.6207 -22.33 47.9682 -18.4984 46.0123 -13.6607L43.047 -6.32617C41.554 -2.63315 45.1508 1.07862 48.8889 -0.297562L56.5789 -3.12861C61.5113 -4.94444 65.1301 1.60963 60.9658 4.81648L55.2722 9.20095C52.0655 11.6704 53.3915 16.7798 57.3944 17.3782L64.6295 18.4598C69.8454 19.2396 69.8454 26.7604 64.6295 27.5402L57.3944 28.6218C53.3915 29.2202 52.0655 34.3296 55.2722 36.799L60.9658 41.1835C65.1301 44.3904 61.5113 50.9444 56.579 49.1286L48.8889 46.2976C45.1508 44.9214 41.5539 48.6331 43.047 52.3262L46.0123 59.6607C47.9682 64.4984 41.6207 68.33 38.2512 64.3457L32.4864 57.5291C29.9574 54.5386 25.0857 55.8849 24.4512 59.7497L23.03 68.407C22.1879 73.5362 14.8121 73.5362 13.97 68.407L12.5488 59.7497C11.9143 55.8849 7.04263 54.5386 4.51358 57.5291L-1.25117 64.3457C-4.62067 68.33 -10.9682 64.4984 -9.01233 59.6607L-6.04701 52.3262C-4.55395 48.6332 -8.15076 44.9214 -11.8889 46.2976L-19.5789 49.1286C-24.5113 50.9444 -28.1301 44.3904 -23.9658 41.1835L-18.2722 36.799C-15.0655 34.3296 -16.3915 29.2202 -20.3944 28.6218L-27.6296 27.5402C-32.8454 26.7604 -32.8454 19.2396 -27.6295 18.4598L-20.3944 17.3782C-16.3915 16.7798 -15.0655 11.6704 -18.2722 9.20095L-23.9658 4.81648C-28.1301 1.60963 -24.5113 -4.94444 -19.579 -3.12862L-11.8889 -0.297565C-8.15077 1.07862 -4.55395 -2.63314 -6.04701 -6.32616L-9.01232 -13.6607C-10.9682 -18.4984 -4.62069 -22.33 -1.25119 -18.3457L4.51358 -11.5291C7.04263 -8.5386 11.9143 -9.88494 12.5488 -13.7497L13.97 -22.407Z" fill="#E73626"/>
</svg>
