<svg width="20" height="20" viewBox="0 0 20 20" fill="none" xmlns="http://www.w3.org/2000/svg">
<path fill-rule="evenodd" clip-rule="evenodd" d="M10.41 0.58L19.41 9.58C19.77 9.94 20 10.45 20 11C20 11.55 19.78 12.05 19.41 12.41L12.41 19.41C12.05 19.78 11.55 20 11 20C10.45 20 9.95 19.78 9.59 19.42L0.59 10.42C0.22 10.05 0 9.55 0 9V2C0 0.9 0.9 0 2 0H9C9.55 0 10.05 0.22 10.41 0.58ZM2 9L11 18.01L18 10.99L9 1.99V2H2V9ZM4.5 3C3.67157 3 3 3.67157 3 4.5C3 5.32843 3.67157 6 4.5 6C5.32843 6 6 5.32843 6 4.5C6 3.67157 5.32843 3 4.5 3ZM7.5 12C7.13 11.62 6.9 11.12 6.9 10.55C6.9 9.42 7.82 8.5 8.95 8.5C9.51 8.5 10.03 8.73 10.4 9.11L11 9.7L11.6 9.1C11.97 8.73 12.48 8.5 13.05 8.5C14.18 8.5 15.1 9.42 15.1 10.55C15.1 11.11 14.87 11.63 14.5 12L11 15.5L7.5 12Z" fill="#DADADA"/>
</svg>
